<?xml version="1.0" ?><!DOCTYPE svg  PUBLIC '-//W3C//DTD SVG 1.1//EN'  'http://www.w3.org/Graphics/SVG/1.1/DTD/svg11.dtd'><svg width="30px" height="30px" enable-background="new 0 0 48 48" id="Layer_1" version="1.1" viewBox="0 0 512 512" xml:space="preserve" xmlns="http://www.w3.org/2000/svg" xmlns:xlink="http://www.w3.org/1999/xlink"><g><g opacity="0.12"><g><rect fill="none" height="127.054" width="407.444" x="38.7" y="383.946"/><path d="M446.144,447.46c0,35.106-91.199,63.54-203.729,63.54C129.906,511,38.7,482.566,38.7,447.46     c0-35.08,91.207-63.514,203.715-63.514C354.944,383.946,446.144,412.38,446.144,447.46" fill="#231F20"/></g></g><path d="M90.695,380.912c0,0-16.01,18.847-4.715,47.11c11.308,28.276,73.509,15.09,75.387,0   c0,0,49.954,8.484,36.761-33.925c0,0-5.661-9.416-12.247-13.186H90.695z" fill="#989897"/><path d="M220.745,423.32c0,0-26.385,26.372,0,53.703s92.356,11.309,86.708-11.308c0,0,70.672,13.199,58.418-32.979   c-12.24-46.178-26.504-34.87-26.504-34.87L220.745,423.32z" fill="#989897"/><path d="M97.289,309.281c0,0,7.552,36.748-6.586,71.617c0,0,12.247,32.992,58.425,11.321   c0,0,34.863,9.417,36.748-11.321v-26.451C185.875,354.447,132.158,305.512,97.289,309.281" fill="#F3CBA2"/><path d="M218.86,362.052c0,0,6.6,28.277,1.885,61.269c0,0,44.3,37.681,75.4,0c0,0,46.27,8.983,48.096-26.596   c0,0-17.954-22.419-24.547-53.52L218.86,362.052z" fill="#F3CBA2"/><path d="M90.695,292.325c0,0-25.453,35.803-44.286,0c0,0-40.524,1.879-20.738-28.276   c0,0-30.687-14.132-5.444-30.155c0,0-4.918-35.815,19.583-14.131c0,0-4.715-27.331,17.907-28.277L90.695,292.325z" fill="#929496"/><path d="M281.553,359.229c0,0-19.346,49.947-52.324,5.66c0,0-46.178,39.204-53.723-10.546   c0,0-55.601,18.071-55.601-35.632c0,0-54.649,8.484-43.341-45.245c0,0-50.893-14.119-20.738-55.595c0,0-33.917-29.209,1.891-45.232   c0,0-32.046-44.287,14.132-52.771c0,0-32.979-61.255,41.463-55.595c0,0,9.528-49.001,48.108-25.439   c0,0,11.262-42.415,52.731-12.267c0,0,38.686-55.595,67.401-2.824c0,0,59.824-22.609,49.448,34.87c0,0,68.794-14.131,46.178,55.595   l-46.178,213.92C331.001,328.128,324.461,379.021,281.553,359.229" fill="#171516"/><path d="M275.774,185.011c0.723,41.528-50.833,45.107-50.833,45.107s10.021,5.49,8.589,29.36l0.145,19.097   c0,0,0.099,6.678,4.15,7.157c0,0-26.727,12.411-63.488,0h-0.111c4.058-0.479,4.15-7.157,4.15-7.157l0.145-19.097   c-27.252,9.548-37.509-9.548-38.62-13.692c-1.116-4.137-6.048-11.137-9.87-13.521c-3.815-2.384-8.911-6.843-1.589-7.801   c7.322-0.952,10.021,1.596,21.165,14.322c11.137,12.726,29.702,5.818,29.702,5.818l0,0c2.246-11.426,7.801-14.486,7.801-14.486   s-51.549-3.579-50.84-45.107c0,0-2.62-25.059,11.459-37.47c0,0-4.295-15.281-0.952-26.26c0,0,1.313-6.324,9.068-3.461   c0,0,18.02,5.851,22.675,11.577l-0.125,0.479c27.686-9.548,55.135-0.479,55.135-0.479c4.656-5.726,22.675-11.577,22.675-11.577   c7.755-2.863,9.069,3.461,9.069,3.461c3.343,10.979-0.952,26.26-0.952,26.26C278.401,159.952,275.774,185.011,275.774,185.011z    M166.792,249.293c-1.583,0-2.863,0.71-2.863,1.59c0,0.873,1.28,1.589,2.863,1.589c1.583,0,2.863-0.716,2.863-1.589   C169.655,250.003,168.375,249.293,166.792,249.293z M175.25,248.381c-1.55,0.321-2.66,1.28-2.482,2.141s1.583,1.287,3.132,0.972   c1.543-0.321,2.66-1.287,2.476-2.141C178.198,248.492,176.8,248.059,175.25,248.381z M158.091,248.321   c-1.497-0.499-2.942-0.229-3.218,0.598c-0.282,0.827,0.709,1.911,2.207,2.417c1.497,0.505,2.942,0.243,3.224-0.591   C160.58,249.911,159.595,248.827,158.091,248.321z M151.242,244.125c-1.235-0.979-2.686-1.215-3.231-0.531   c-0.545,0.689,0.02,2.042,1.254,3.026c1.241,0.985,2.686,1.222,3.231,0.539C153.041,246.47,152.482,245.11,151.242,244.125z    M145.975,238.353c-0.874-1.083-2.069-1.569-2.667-1.083c-0.604,0.486-0.381,1.76,0.493,2.837c0.874,1.09,2.069,1.569,2.667,1.09   C147.072,240.71,146.849,239.437,145.975,238.353z M141.142,232.528c-0.873-1.083-2.068-1.569-2.666-1.083   c-0.604,0.486-0.381,1.76,0.493,2.837c0.874,1.083,2.068,1.569,2.666,1.083C142.238,234.886,142.015,233.612,141.142,232.528z    M136.44,227.84c-0.834-0.729-1.832-0.952-2.239-0.493s-0.059,1.425,0.768,2.161c0.828,0.735,1.833,0.952,2.239,0.492   C137.615,229.541,137.268,228.575,136.44,227.84z" fill="#FFFFFF"/><path d="M323.463,157.562c0,0-33.924-60.31-94.24-39.578c0,0-15.071,65.031,64.099,81.993   c0,0-66.923,144.188,41.449,160.197c0,0,38.64,60.31,84.817,20.738c0,0,45.231,37.68,71.617-37.707s-1.878-87.627-29.209-133.805   c0,0,49.001-14.329,35.815-95.744c0,0-51.839-3.205-75.4,25.059L323.463,157.562z" fill="#F3CBA2"/><path d="M450.688,327.195   c0,0-26.938,39.52-68.938,0" fill="none" stroke="#C8A988" stroke-linecap="round" stroke-miterlimit="10" stroke-width="4.7474"/><path d="M353.617,327.195   c0,0-26.385-1.892-26.385-29.222" fill="none" stroke="#C8A988" stroke-linecap="round" stroke-miterlimit="10" stroke-width="4.7474"/><path d="M422.411,344.755   c0,0,8.104,28.526-2.823,36.144" fill="none" stroke="#C8A988" stroke-linecap="round" stroke-miterlimit="10" stroke-width="4.7474"/><path d="M333.418,316.938   c0,0-12.03,27.475,1.353,43.235" fill="none" stroke="#C8A988" stroke-linecap="round" stroke-miterlimit="10" stroke-width="4.7474"/><path d="M441.258,232.016c0,9.075,4.216,16.443,9.431,16.443c5.2,0,9.416-7.368,9.416-16.443   c0-9.088-4.216-16.443-9.416-16.443C445.474,215.573,441.258,222.928,441.258,232.016" fill="#434445"/><path d="M344.188,232.016c0,9.075,4.216,16.443,9.43,16.443c5.201,0,9.431-7.368,9.431-16.443   c0-9.088-4.229-16.443-9.431-16.443C348.403,215.573,344.188,222.928,344.188,232.016" fill="#434445"/><path d="M310.276,192.109c0,0,10.835-64.703-67.854-59.049C242.422,133.061,241.482,182.831,310.276,192.109" fill="#F6B5CE"/><path d="M479.897,136.364c0,0-47.452-14.604-54.597,47.59C425.301,183.954,475.655,202.321,479.897,136.364" fill="#F6B5CE"/><path d="M416.212,113.538c0,0-15.918-39.375-48.909-6.869c0,0-46.664-31.087-45.718,15.557   c0,0-51.011,14.789-6.134,42.415c0,0-15.918,48.056,28.789,31.087c0,0,14.565,37.417,45.192,3.638c0,0,36.42,30.286,35.868-19.182   c0,0,44.72-2.909,11.965-30.424C437.266,149.76,467.026,106.269,416.212,113.538" fill="#929496"/></g></svg>
